<svg height="411" width="557" viewBox="0 0 557 411" preserveAspectRatio="xMidYMid meet" fill="none" xmlns="http://www.w3.org/2000/svg"><path d="M290.897 138.85l66.401-115.009h132.801L556.5 138.85l-66.401 115.01H357.298l-66.401-115.01z" fill="#EB7100"/><mask id="a" mask-type="alpha" maskUnits="userSpaceOnUse" x="290" y="23" width="267" height="231"><path d="M290.897 138.85l66.401-115.009h132.801L556.5 138.85l-66.401 115.01H357.298l-66.401-115.01z" fill="#FFAA05"/></mask><g mask="url(#a)"><path d="M431.683 109.38s5.278 2.206 7.326 15.045c2.048 12.84-.315 25.994-9.216 30.799 0 0 .157-7.325-2.915-8.743-3.072-1.339 4.805-37.101 4.805-37.101z" fill="#212B36"/><path d="M416.638 79.763s18.275 6.853 16.936 35.761c-1.339 28.909-.709 42.063-23.789 47.42 0 0-.551 16.62 0 17.093.552.472-3.072 12.997-3.072 12.997l-9.531 1.89-27.569-9.216-6.302-19.692 2.599-6.144 2.048-3.387s6.696-1.576 7.72-6.145c-.158-4.962-8.192-12.918-8.192-12.918l-4.175-14.021 1.575-9.058 5.829-6.144 8.901-6.538 13.155-10.792 23.867-11.106z" fill="#937559"/><path d="M378.986 140.179s3.23 13.706 13.706 19.063c10.476 5.356 17.014 3.702 17.014 3.702l-.393 11.736s-25.049 2.915-32.296-26.781l-5.041-4.805 7.01-2.915z" fill="#6D5642"/><path d="M418.529 84.331s-8.192 24.261-40.724 33.399c0 0-4.963-2.363-8.744 5.12-3.781 7.483 2.915 18.983 9.925 17.329 0 0-1.181 10.24-5.829 13.706 0 0-5.829-2.757-5.199-10.555 0 0-2.126 1.575-1.811 5.12 0 0-20.559-4.096-11.264-30.09 0 0-4.254.315-6.144-1.891 0 0 5.12-3.072 7.325-13.312 2.206-10.24 7.326-27.018 22.922-26.309 0 0 5.987-12.682 28.751-9.61 22.765 3.072 29.618 23.474 35.604 23.474 3.23-.158.867 13.154-10.082 15.045 0-.158-5.357-16.778-14.73-21.426z" fill="#212B36"/><path d="M319.987 179.486s-.157-6.696 7.877-10.792c8.035-4.096 37.81-10.555 44.505-14.257 0 0-6.144 8.586 1.339 23.316 7.484 14.73 29.618 11.264 34.029 1.733 2.599-5.514 1.969-14.022 1.969-14.022s.237-1.339 1.576-.157c1.339 1.181 4.411 2.757 10.949 2.599 6.538-.157 11.264-.157 13.863 1.576 2.6 1.733 4.963 7.01 4.963 7.01l28.436 54.43-1.339 15.203-22.607 5.829s-5.12-6.696-7.011-13.155c-1.89-6.538-3.781-26.073-3.781-26.073s-17.959 41.827-19.535 43.718c-1.575 1.89-78.691-59.865-78.691-59.865l-16.542-17.093z" fill="#FFE3AC"/><path d="M443.341 254.475s-1.891-2.442 1.339-3.781c.709-1.812.945-3.624 3.781-3.624 2.836 0 4.647-1.575 5.356-1.575h.788s-.551-3.624 0-4.096c.551-.552 22.843-2.285 24.891-1.261 2.048 1.024 1.812 4.096 3.624 5.357 1.811 1.26 4.883 5.671 3.623 8.98h-43.402z" fill="#937559"/><path d="M457.913 248.803c-.945-1.812-2.127-2.993-3.387-3.781 0 .315.079.473.079.473h-.788c-.787 0-2.599 1.575-5.356 1.575-2.836 0-3.072 1.812-3.781 3.624-3.23 1.339-1.339 3.78-1.339 3.78h22.686c-.158-2.993-2.521-3.938-8.114-5.671z" fill="#937559"/><path d="M444.309 124.348a9.255 9.255 0 019.202-8.263h105.518v129.007H441.595c-5.505 0-9.793-4.776-9.203-10.249l11.917-110.495z" fill="#F1F2F2"/><path d="M510.336 183.319a4.627 4.627 0 014.627-4.628h35.845v59.444h-40.472v-54.816z" fill="#DEE0E3"/><path d="M405.025 118.707c.41-1.959.053-3.691-.799-3.87-.851-.178-1.874 1.265-2.285 3.224-.41 1.958-.053 3.69.799 3.869.851.178 1.874-1.265 2.285-3.223zM426.874 120.948c.411-1.959.053-3.691-.799-3.87-.851-.178-1.874 1.265-2.285 3.223-.41 1.959-.052 3.691.799 3.87.852.178 1.875-1.265 2.285-3.223z" fill="#051627"/><path d="M423.57 104.654s3.702-.709 6.695 3.86M403.483 104.654s4.569-3.072 9.61-1.497" stroke="#212B36" stroke-width="4.628" stroke-miterlimit="10" stroke-linecap="round"/><path d="M419.316 125.843s2.678 9.059 1.418 11.422c-1.26 2.363-6.932.709-6.932.709M409.785 147.584h4.017" stroke="#6D5642" stroke-width="1.62" stroke-miterlimit="10" stroke-linecap="round"/></g><path d="M476.123 1.087a2.552 2.552 0 011.392 0l35.413 10.118a2.53 2.53 0 011.834 2.434c0 25.67-10.014 41.433-18.417 50.133a53.865 53.865 0 01-18.676 12.956c-.549.199-1.151.199-1.7 0-.372-.13-37.093-13.816-37.093-63.09a2.53 2.53 0 011.834-2.433l35.413-10.118zm13.606 24.018a3.794 3.794 0 00-5.366-.013l-7.49 7.451-7.487-7.45-.288-.26a3.796 3.796 0 00-5.065 5.638l7.462 7.427-7.462 7.43-.261.287a3.795 3.795 0 005.614 5.091l7.487-7.453 7.49 7.453.288.26a3.796 3.796 0 005.065-5.638l-7.465-7.43 7.465-7.427.261-.288a3.795 3.795 0 00-.248-5.078zM48.061 42.728h217.541v217.541H48.061z" fill="#FFAA05"/><mask id="b" mask-type="alpha" maskUnits="userSpaceOnUse" x="48" y="42" width="218" height="219"><path fill="#FFAA05" d="M48.061 42.728h217.541v217.541H48.061z"/></mask><g mask="url(#b)"><path d="M204.746 84.075s3.325 32.186 4.216 38.429c.892 6.243-1.216 16.783-16.215 23.999-14.999 7.215-27.727 1.621-30.241-8.351-2.513-9.891-.567-21.242-.567-21.242l26.673-9.405 16.134-23.43z" fill="#D2A680"/><path d="M190.721 129.316c5.432-5.675 12.647-16.458 15.809-27.89-.973-9-1.783-17.431-1.783-17.431l-16.134 23.512-26.674 9.405s-.811 4.459-.73 10.215c2.676 2.676 6.486 5.756 10.945 7.216 5.757 1.621 12.405 1.459 18.567-5.027z" fill="#9D7C5F"/><path d="M162.831 116.912s-2.757 24.565 13.215 28.457c15.972 3.892 32.349-13.215 32.917-22.863.567-9.648 2.837 2.756 2.837 2.756s3.324 100.453 2.757 113.83c-.568 13.377-1.622 21.971-1.622 21.971h-77.183s4.783-51.807 8.999-77.832c4.216-26.025 13.621-65.103 14.594-66.319.973-1.217 3.486 0 3.486 0z" fill="#FFF1D6"/><path d="M205.882 94.86s2.189-.568 4.297 2.431c2.108 3 8.837 11.432 28.538 19.621 19.701 8.188 27.809 10.134 30.647 13.864 2.837 3.729 0 130.287 0 130.287h-59.51s-1.054-85.21-.729-112.856c.324-27.647-3.243-53.348-3.243-53.348zM162.669 114.885s-10.946 49.618-14.594 77.508c-3.729 27.808-10.702 68.67-10.702 68.67h-34.862s-18.89-9.972-19.458-16.296c-2.108-25.133 27.241-90.561 27.241-90.561l7.378-9.161s9.161-8.594 19.539-15.648c10.378-7.053 22.133-15.81 24.079-17.755 1.946-2.027 1.379 3.243 1.379 3.243z" fill="#00848C"/><path d="M238.231 148.044c.324-.973-9.486-26.836-13.864-38.267-8.918-5.513-12.729-10.297-14.188-12.405-2.108-3-4.297-2.432-4.297-2.432s3.405 23.917 3.324 50.429c9.486 1.216 28.781 3.567 29.025 2.675zM161.209 111.561c-1.621 1.621-9.891 7.864-18.566 13.945-3.486 7.053-11.594 23.917-10.053 24.241 1.459.406 16.701-2.027 23.512-3.162 3.486-17.512 6.567-31.7 6.567-31.7s.567-5.27-1.46-3.324zM81.107 261.064s-2.108-23.188 10.053-32.106c12.161-9 24.566 3.405 25.377 14.026.81 10.54-1.865 18.161-1.865 18.161H81.107v-.081z" fill="#005358"/><rect x="86.004" y="133.048" width="35.414" height="68.298" rx="3.471" transform="rotate(-7 86.004 133.048)" fill="#16436C"/><circle cx="94.225" cy="139.483" r="1.897" fill="#fff"/><path d="M107.375 221.58s8.27 10.945 7.946 20.593c-.325 9.648-4.784 16.701-8.838 17.755-4.053 1.054-9.485.162-10.215-.892-.73-1.054-6.162-10.053-6-11.999.162-1.945-1.378-20.917-4.053-36.97-2.676-16.053-5.757-24.16-5.27-27.971a458.917 458.917 0 011.865-13.053c.567-3.567-.325-6.486 1.053-8.432 1.379-1.946 6.892-4.54 9.162-5.27 2.27-.729 16.783-2.918 17.918-2.27 1.135.649 3.08 4.54-5.351 7.378-8.432 2.838-13.053 4.946-12.648 6.729.324 1.784 1.054 3 2.675 2.432 1.622-.567 9.324-2.27 12.648-2.675 3.324-.405 16.702.162 17.269 1.216.568 1.054-2.189 5.675-8.837 5.838-6.648.162-9.81-.163-10.864.324-1.054.567-7.945 2.108-8.432 3.486-.568 1.378.162 3.973 1.54 3.973 1.298-.081 13.459-5.513 15.08-5.838 1.622-.324 9.162-1.783 10.216-.891 1.054.891-2.351 4.54-7.459 6.729-5.108 2.108-14.026 5.351-14.026 6.891 0 1.541.568 2.757 2.432 2.432 1.865-.324 12.648-4.459 14.107-5.026 1.379-.568 6.324-4.622 6.405-5.189.081-.568 2.757 4.783-2.756 9.486-5.513 4.702-11.594 7.378-11.594 8.432 0 1.054.324 9.566-.324 13.701-.811 4.216-3.649 9.081-3.649 9.081z" fill="#D2A680"/><path d="M101.7 227.742c.243.405.811.243 1.378-.163.568-.486 1.054-.567 1.46-1.054.405-.486.486-.729.729-.972.244-.406.811-.649 1.054-1.298.244-.567.325-.973 0-1.216-.486-.324-.892-.081-.973.162-.162.568-.567.568-.81.973-.406.892-1.054 1.135-1.379 1.297-.162.082-.324.406-.486.649-.162.243-.405.162-.568.405-.486.649-.648.892-.405 1.217z" fill="#9D7C5F"/><path d="M119.212 195.879c-.162.162.406 1.054.973 3 .568 1.864 1.135 4.621 1.541 7.945.324 3.324.405 5.838.405 8.27 0 2.351 0 4.621-.162 7.459 0 2.837-.162 4.702-.243 6.324a89.04 89.04 0 01-.325 4.459 123.366 123.366 0 01-.729 6.81 544.407 544.407 0 00-.973 8.026c-.568 4.946-1.054 8.919-.649 9 .568.081 1.459-4.054 1.703-6.729.324-2.514.567-4.378.81-6.243.244-1.865.649-3.811.811-6.486.73-9.081 1.054-14.999 1.297-18.485.081-1.946-.081-4.946-.324-7.865-.081-1.378-.162-2.351-.243-3.486-.081-1.054-.243-2.189-.487-3.81-.648-3.162-1.378-5.351-2.108-6.649-.567-1.297-1.135-1.702-1.297-1.54z" fill="#005358"/><path d="M148.967 40.052s-4.54 8.27 0 27.08c4.54 18.809 7.783 36.645 13.945 41.348 6.162 4.783 31.7-4.378 35.592-11.837 3.892-7.378 6.486-11.27 6.486-11.27s4.216-3.162 6-8.837c1.783-5.675.891-15.485-1.217-17.107-2.108-1.621-4.216-13.945-4.216-13.945l-14.35-18.242-20.107 3.892-22.133 8.918z" fill="#D2A680"/><path d="M147.751 61.456s-1.784-13.62 6.648-17.188c0 0 11.269 11.432 32.916-4.378 0 0 3.487 20.512 14.594 28.62 0 0 .162-5.432 3.729-6.324 3.487-.892 6.243 1.216 6.243 3.892 0 0 .973-4.784 2.027-7.378 1.054-2.595 7.216-18.81-5.675-27.08 0 0-.892-15.16-17.756-19.7-16.863-4.541-35.186 12.485-40.862 8.593 0 0-10.701 8.432-3.891 24.16 0 0-6.162 9.81 2.027 16.783z" fill="#F1F2F2"/><path d="M153.669 91.13s.325-2.27 1.622-1.784c1.216.568 3 10.378 3.891 10.378.892 0 3.73-5.513 5.676-5.27 1.945.243 9.891-1.54 12.891 0 2.999 1.54 9.161 5.918 11.269 5.27 2.108-.73 7.054-6.486 7.783-8.838.73-2.35.892-28.7 1.784-28.538.892.162 4.135 3.08 4.135 3.08s1.135 21.567 1.865 25.945c.729 4.378.567 6.324-1.946 10.378-2.433 4.053-9.648 13.053-18.323 19.701-8.594 6.729-22.62 4.297-24.323-7.945-1.784-3.73-5.675-7.054-6.162-10.54-.486-3.486-.162-11.837-.162-11.837z" fill="#F1F2F2"/><path d="M149.615 64.05s4.216-2.107 8.594.73M173.776 64.78s7.216-3.486 13.945-.73" stroke="#F1F2F2" stroke-width="4.628" stroke-miterlimit="10" stroke-linecap="round"/><path d="M185.388 80.2c.782-.335.9-1.808.264-3.289s-1.785-2.41-2.567-2.074c-.782.335-.9 1.808-.264 3.29.636 1.48 1.785 2.41 2.567 2.074zM158.391 80.207c.782-.336.9-1.809.264-3.29s-1.785-2.41-2.567-2.074c-.782.335-.9 1.808-.264 3.29.636 1.48 1.785 2.41 2.567 2.074z" fill="#051627"/><path d="M166.722 77.51s-3.729 17.755-1.621 18.809c2.108 1.054 8.594-2.514 8.594-2.514M166.479 106.21s4.865.405 9.648-.649M187.64 76.617s2.189-2.27 4.54-.892M151.561 78.482s.649-1.216 2.352 0" stroke="#9D7C5F" stroke-width="1.62" stroke-miterlimit="10" stroke-linecap="round"/></g><path d="M148.967 40.052s-4.54 8.27 0 27.08c4.54 18.809 7.783 36.645 13.945 41.348 6.162 4.783 31.7-4.378 35.592-11.837 3.892-7.378 6.486-11.27 6.486-11.27s4.216-3.162 6-8.837c1.783-5.675.891-15.485-1.217-17.107-2.108-1.621-4.216-13.945-4.216-13.945l-14.35-18.242-20.107 3.892-22.133 8.918z" fill="#D2A680"/><path d="M147.751 61.456s-1.784-13.62 6.648-17.188c0 0 11.269 11.432 32.916-4.378 0 0 3.487 20.512 14.594 28.62 0 0 .162-5.432 3.729-6.324 3.487-.892 6.243 1.216 6.243 3.892 0 0 .973-4.784 2.027-7.378 1.054-2.595 7.216-18.81-5.675-27.08 0 0-.892-15.16-17.756-19.7-16.863-4.541-35.186 12.485-40.862 8.593 0 0-10.701 8.432-3.891 24.16 0 0-6.162 9.81 2.027 16.783z" fill="#F1F2F2"/><path d="M153.669 91.13s.325-2.27 1.622-1.784c1.216.568 3 10.378 3.891 10.378.892 0 3.73-5.513 5.676-5.27 1.945.243 9.891-1.54 12.891 0 2.999 1.54 9.161 5.918 11.269 5.27 2.108-.73 7.054-6.486 7.783-8.838.73-2.35.892-28.7 1.784-28.538.892.162 4.135 3.08 4.135 3.08s1.135 21.567 1.865 25.945c.729 4.378.567 6.324-1.946 10.378-2.433 4.053-9.648 13.053-18.323 19.701-8.594 6.729-22.62 4.297-24.323-7.945-1.784-3.73-5.675-7.054-6.162-10.54-.486-3.486-.162-11.837-.162-11.837z" fill="#F1F2F2"/><path d="M149.615 64.05s4.216-2.107 8.594.73M173.776 64.78s7.216-3.486 13.945-.73" stroke="#F1F2F2" stroke-width="4.628" stroke-miterlimit="10" stroke-linecap="round"/><path d="M185.388 80.2c.782-.335.9-1.808.264-3.289s-1.785-2.41-2.567-2.074c-.782.335-.9 1.808-.264 3.29.636 1.48 1.785 2.41 2.567 2.074zM158.391 80.207c.782-.336.9-1.809.264-3.29s-1.785-2.41-2.567-2.074c-.782.335-.9 1.808-.264 3.29.636 1.48 1.785 2.41 2.567 2.074z" fill="#051627"/><path d="M166.722 77.51s-3.729 17.755-1.621 18.809c2.108 1.054 8.594-2.514 8.594-2.514M166.479 106.21s4.865.405 9.648-.649M187.64 76.617s2.189-2.27 4.54-.892M151.561 78.482s.649-1.216 2.352 0" stroke="#9D7C5F" stroke-width="1.62" stroke-miterlimit="10" stroke-linecap="round"/><path fill-rule="evenodd" clip-rule="evenodd" d="M55.987 57.87a7.245 7.245 0 11.002-14.49 7.245 7.245 0 01-.002 14.49zm-1.425-29.053c-12.79 0-23.158 10.366-23.158 23.156 0 1.598.162 3.158.471 4.662l-2.499 2.514 17.938 18.049 2.59-2.523-.002-.015c1.507.307 3.064.469 4.66.469 12.79 0 23.156-10.369 23.156-23.156 0-12.79-10.366-23.156-23.156-23.156zM2.773 85.887v17.899H18.26l8.659-8.659.06-5.838 9.598.01v-5.815l-15.743-15.75-18.06 18.153zM65.985 85.73h-7.669a2.412 2.412 0 01-2.414-2.414 2.412 2.412 0 012.414-2.414h7.669a2.414 2.414 0 110 4.829zM59.645 100.506a2.41 2.41 0 01-1.712-.712l-5.785-5.82a2.412 2.412 0 01.01-3.413 2.41 2.41 0 013.414.01l5.785 5.818a2.412 2.412 0 01-1.712 4.117zM45 106.95a2.414 2.414 0 01-2.414-2.414v-7.819a2.414 2.414 0 114.829 0v7.819A2.414 2.414 0 0145 106.95zM10.281 59.975H2.415A2.412 2.412 0 010 57.56a2.412 2.412 0 012.415-2.414h7.866a2.414 2.414 0 110 4.829zM14.614 51.043a2.404 2.404 0 01-1.717-.72L7.01 44.36a2.412 2.412 0 113.434-3.39l5.887 5.964a2.412 2.412 0 01-1.717 4.11zM23.538 46.723a2.414 2.414 0 01-2.415-2.415v-7.915a2.414 2.414 0 114.83 0v7.915a2.414 2.414 0 01-2.415 2.415z" fill="#CC4E00"/><circle cx="302.28" cy="290.624" r="120.154" fill="#CC4E00"/><mask id="c" mask-type="alpha" maskUnits="userSpaceOnUse" x="182" y="170" width="241" height="241"><circle cx="302.28" cy="290.624" r="118.997" fill="#FFAA05" stroke="#FFE3AC" stroke-width="2.314"/></mask><g mask="url(#c)"><path d="M263.279 163.556s1.588-2.938 3.415-2.62c1.826.317 6.193.873 6.748.555.556-.317 6.59-6.907 9.846-7.384 3.255-.555 11.909 2.065 24.693 8.099 12.783 6.034 21.358 19.135 22.628 23.264 1.191 4.128 2.779 10.163 3.652 22.231.874 12.069 4.129 42.955 5.876 48.83 1.747 5.876-53.673 36.92-107.426-1.985 0 0-1.906-.476 2.62-12.545 4.526-12.068 13.418-33.823 16.594-48.909 3.176-15.086 3.97-17.706 5.32-20.326 1.35-2.62 6.034-9.21 6.034-9.21z" fill="#4A3720"/><path d="M273.442 239.619v11.195c0 2.779-.873 8.258-11.354 14.292-10.48 6.034 5.717 31.759 5.717 31.759l23.105 17.944h22.073l12.545-8.813 2.461-12.942-5.002-12.386-.159-4.843s-13.101-5.876-13.259-8.972c-.159-3.097-.318-13.974-.318-13.974l-35.809-13.26z" fill="#E8C09C"/><path d="M309.569 267.17c0-.079-.08-.238-.08-.317-.159-3.097-.317-13.974-.317-13.974l-35.73-13.26v11.037c5.002 8.098 18.183 25.01 36.127 16.514z" fill="#D9965B"/><path d="M318.223 180.309s8.496 11.195 7.146 29.298c-1.35 18.103-7.225 40.731-15.006 47.559-7.781 6.829-19.294 3.653-26.519-3.096-7.226-6.749-16.356-16.197-16.595-18.976-.238-2.779-.873-5.876-.873-5.876l-9.131 4.208-5.558-12.783 1.588-16.912 7.622-9.289 12.942-6.828 23.026-12.148 11.354-5.717 6.749 6.034 3.255 4.526z" fill="#E8C09C"/><path d="M287.277 218.761c.355-1.583-.051-3.022-.907-3.214-.855-.192-1.837.936-2.192 2.519-.354 1.583.052 3.022.907 3.214.856.192 1.838-.936 2.192-2.519zM315.913 218.725c.354-1.583-.052-3.022-.908-3.214-.855-.192-1.837.936-2.192 2.52-.354 1.583.052 3.022.907 3.214.856.191 1.838-.937 2.193-2.52z" fill="#051627"/><path d="M280.032 208.495s5.479-5.875 13.26-3.255M309.251 206.51s3.97-5.081 10.401-1.508" stroke="#4A3720" stroke-width="2.314" stroke-miterlimit="10" stroke-linecap="round"/><path d="M304.646 222.31s1.191 11.99 0 13.339c-1.191 1.35-4.049 1.747-4.049 1.747M298.215 248.512l5.399-.556" stroke="#D9965B" stroke-width="1.62" stroke-miterlimit="10" stroke-linecap="round"/><path d="M270.505 203.731s19.849-7.94 35.729-26.598c0 0 15.641 8.496 19.214 25.407l3.256 8.496-.794-22.073-12.069-17.467-18.579-5.002-27.79 16.753-12.703 8.654-6.59 12.624v26.758l5.716 9.13 7.226-.714 3.255-10.322s-8.416.873-9.845-8.099c-1.43-8.972.714-15.165 4.684-16.197s4.843 5.717 5.32 8.258c.556 2.62 2.858 5.16 2.858 5.16l1.112-14.768z" fill="#4A3720"/><path d="M262.088 265.186s-11.909 5.557-18.658 7.622c-6.749 2.064-23.423 5.875-26.36 20.326-2.938 14.45 3.255 50.179 3.811 60.739.555 10.481 1.191 27.631 1.191 27.631l40.016 27.71 3.414-1.112 56.532 9.687 41.049-18.659 11.036-12.624s-10.718-42.954-14.45-59.152c-3.732-16.197-7.622-32.791-12.228-37.237-4.605-4.447-34.617-19.691-34.617-19.691s14.609 16.276 7.225 28.504c-7.384 12.227-49.862 14.371-57.961-33.744z" fill="#02346E"/><path d="M355.143 367.53l.556-4.923s4.684-16.832 0-33.109c-3.732-13.101-18.976-39.62-24.772-49.465-8.972-4.923-18.103-9.528-18.103-9.528s14.609 16.277 7.225 28.504c-7.384 12.228-49.862 14.292-57.961-33.823 0 0-2.461 1.191-5.875 2.62.715 13.736 3.017 60.422 3.573 70.664.556 9.925 4.049 54.467 5.24 69.791l.477-.159 56.531 9.687 31.998-14.53 3.89-6.034-2.779-29.695z" fill="#C2EAFF"/><path d="M289.79 309.422a3.47 3.47 0 013.468-3.621h30.693a3.47 3.47 0 013.467 3.621l-2.228 51.238a3.47 3.47 0 01-3.467 3.32h-26.238a3.47 3.47 0 01-3.467-3.32l-2.228-51.238z" fill="#fff"/><circle cx="297.854" cy="314.022" r="1.897" fill="#B9BDC2"/><path d="M238.745 392.937s12.704-18.817 17.468-28.266c4.764-9.448 8.257-18.42 9.131-20.723.873-2.223 5.716-14.847 7.066-15.879 1.35-1.032 12.783-4.288 13.736-4.685.953-.317 18.738-2.382 18.738-2.382s1.032 4.288-7.066 5.876c-8.099 1.588-10.56 3.096-11.672 3.652-1.111.556-1.985 1.35-1.429 1.906.556.555 7.146-.715 10.56-1.033 3.414-.317 10.798-.158 10.798-.158s.874 2.62-6.908 4.128c-7.781 1.509-9.448 4.844-9.13 5.161.317.318 3.811 0 4.446-.555.635-.556 7.781-1.747 9.29-1.588 1.508.158 2.62 1.588 1.191 3.017-1.35 1.429-9.369 3.731-9.766 4.208-.397.476-4.288 4.128-3.732 4.446.556.318.953.318 5.24-1.032 4.288-1.35 7.781-2.938 7.781-2.938s1.747 2.779-3.652 5.558c-5.32 2.779-9.846 3.097-11.592 5.24-1.747 2.144-7.464 8.178-16.912 13.498-3.255 6.352-7.543 14.689-6.511 33.824l-4.446 1.349-15.165-7.622-7.464-5.002zM354.667 398.654s-4.446-22.946-7.781-27.631c-3.256-4.684-4.129-5.002-4.844-5.161-.714-.158-8.654-2.62-15.879-10.163-3.097-3.096-11.91-6.748-11.592-8.972 0 0 5.002-.158 6.352 0 1.349.159-10.322-3.414-8.655-6.907 3.097-.874 9.687.873 10.481.873.794 0 5.716-.159 5.716-.159s-5.319-3.97-6.748-3.811c-1.35.159-13.816.159-12.387-4.684 5.479-.715 15.324-.556 16.833 0 1.588.556 5.637 1.191 5.637 1.191s-6.669-4.288-7.384-4.129c-.715.159-15.403 0-15.086-4.288 0 0 14.61-1.19 17.547-1.032 2.938.159 15.166 5.002 17.071 7.226 1.906 2.223 10.878 26.916 13.815 30.171 2.938 3.255 15.642 23.184 15.959 24.296.318 1.111-10.957 10.083-12.306 11.274-1.191 1.191-6.749 1.906-6.749 1.906z" fill="#E8C09C"/></g><path d="M263.279 163.556s1.588-2.938 3.415-2.62c1.826.317 6.193.873 6.748.555.556-.317 6.59-6.907 9.846-7.384 3.255-.555 11.909 2.065 24.693 8.099 12.783 6.034 21.358 19.135 22.628 23.264 1.191 4.128 2.779 10.163 3.652 22.231.874 12.069 4.129 42.955 5.876 48.83 1.747 5.876-53.673 36.92-107.426-1.985 0 0-1.906-.476 2.62-12.545 4.526-12.068 13.418-33.823 16.594-48.909 3.176-15.086 3.97-17.706 5.32-20.326 1.35-2.62 6.034-9.21 6.034-9.21z" fill="#4A3720"/><path d="M273.442 239.619v11.195c0 2.779-.873 8.258-11.354 14.292-10.48 6.034 5.717 31.759 5.717 31.759l23.105 17.944h22.073l12.545-8.813 2.461-12.942-5.002-12.386-.159-4.843s-13.101-5.876-13.259-8.972c-.159-3.097-.318-13.974-.318-13.974l-35.809-13.26z" fill="#E8C09C"/><path d="M309.569 267.17c0-.079-.08-.238-.08-.317-.159-3.097-.317-13.974-.317-13.974l-35.73-13.26v11.037c5.002 8.098 18.183 25.01 36.127 16.514z" fill="#D9965B"/><path d="M318.223 180.309s8.496 11.195 7.146 29.298c-1.35 18.103-7.225 40.731-15.006 47.559-7.781 6.829-19.294 3.653-26.519-3.096-7.226-6.749-16.356-16.197-16.595-18.976-.238-2.779-.873-5.876-.873-5.876l-9.131 4.208-5.558-12.783 1.588-16.912 7.622-9.289 12.942-6.828 23.026-12.148 11.354-5.717 6.749 6.034 3.255 4.526z" fill="#E8C09C"/><path d="M287.277 218.761c.355-1.583-.051-3.022-.907-3.214-.855-.192-1.837.936-2.192 2.519-.354 1.583.052 3.022.907 3.214.856.192 1.838-.936 2.192-2.519zM315.913 218.725c.354-1.583-.052-3.022-.908-3.214-.855-.192-1.837.936-2.192 2.52-.354 1.583.052 3.022.907 3.214.856.191 1.838-.937 2.193-2.52z" fill="#051627"/><path d="M280.032 208.495s5.479-5.875 13.26-3.255M309.251 206.51s3.97-5.081 10.401-1.508" stroke="#4A3720" stroke-width="2.314" stroke-miterlimit="10" stroke-linecap="round"/><path d="M304.646 222.31s1.191 11.99 0 13.339c-1.191 1.35-4.049 1.747-4.049 1.747M298.215 248.512l5.399-.556" stroke="#D9965B" stroke-width="1.62" stroke-miterlimit="10" stroke-linecap="round"/><path d="M270.505 203.731s19.849-7.94 35.729-26.598c0 0 15.641 8.496 19.214 25.407l3.256 8.496-.794-22.073-12.069-17.467-18.579-5.002-27.79 16.753-12.703 8.654-6.59 12.624v26.758l5.716 9.13 7.226-.714 3.255-10.322s-8.416.873-9.845-8.099c-1.43-8.972.714-15.165 4.684-16.197s4.843 5.717 5.32 8.258c.556 2.62 2.858 5.16 2.858 5.16l1.112-14.768z" fill="#4A3720"/><path d="M262.088 265.186s-11.909 5.557-18.658 7.622c-6.749 2.064-23.423 5.875-26.36 20.326-2.938 14.45 3.255 50.179 3.811 60.739.555 10.481 6.145 23.388 6.145 23.388l29.722 16.442 14.545 5.427 48.756 5.956 39.62-18.58 7.115-5.002s-3.383-37.952-7.115-54.15c-3.732-16.197-7.622-32.791-12.227-37.237-4.606-4.447-34.618-19.691-34.618-19.691s14.609 16.276 7.225 28.504c-7.384 12.227-49.862 14.371-57.961-33.744z" fill="#02346E"/><path d="M355.143 367.53l.556-4.923s4.684-16.832 0-33.109c-3.732-13.101-18.976-39.62-24.772-49.465-8.972-4.923-18.103-9.528-18.103-9.528s14.609 16.277 7.225 28.504c-7.384 12.228-49.862 14.292-57.961-33.823 0 0-2.461 1.191-5.875 2.62.715 13.736 3.017 60.422 3.573 70.664.556 9.925 4.781 43.59 5.972 58.914l.476-.159s15.177 9.125 36.679 6.034c13.28 8.783 41.105-6.034 41.105-6.034s5.052-1.922 7.588-4.155c7.559-6.653 3.537-25.54 3.537-25.54z" fill="#C2EAFF"/><path d="M289.79 309.422a3.47 3.47 0 013.468-3.621h30.693a3.47 3.47 0 013.467 3.621l-2.228 51.238a3.47 3.47 0 01-3.467 3.32h-26.238a3.47 3.47 0 01-3.467-3.32l-2.228-51.238z" fill="#fff"/><circle cx="297.854" cy="314.022" r="1.897" fill="#B9BDC2"/><path d="M242.836 386.746s8.613-12.626 13.377-22.075c4.764-9.448 8.257-18.42 9.131-20.723.873-2.223 5.716-14.847 7.066-15.879 1.35-1.032 12.783-4.288 13.736-4.685.953-.317 18.738-2.382 18.738-2.382s1.032 4.288-7.066 5.876c-8.099 1.588-10.56 3.096-11.672 3.652-1.111.556-1.985 1.35-1.429 1.906.556.555 7.146-.715 10.56-1.033 3.414-.317 10.798-.158 10.798-.158s.873 2.62-6.908 4.128c-7.781 1.509-9.448 4.844-9.13 5.161.317.318 3.811 0 4.446-.555.635-.556 7.781-1.747 9.29-1.588 1.508.158 2.62 1.588 1.19 3.017-1.349 1.429-9.368 3.731-9.765 4.208-.397.476-4.288 4.128-3.732 4.446.556.318.953.318 5.24-1.032 4.288-1.35 7.781-2.938 7.781-2.938s1.747 2.779-3.652 5.558c-5.32 2.779-9.846 3.097-11.592 5.24-1.747 2.144-7.464 8.178-16.912 13.498-3.256 6.352-7.129 13.033-6.097 32.168l-10.021-4.427-8.318-5.059-5.059-6.324zM353.504 393.703s-3.283-17.995-6.618-22.68c-3.256-4.684-4.129-5.002-4.844-5.161-.714-.158-8.654-2.62-15.879-10.163-3.097-3.096-11.91-6.748-11.592-8.972 0 0 5.002-.158 6.352 0 1.349.159-10.322-3.414-8.655-6.907 3.097-.874 9.687.873 10.481.873.794 0 5.716-.159 5.716-.159s-5.319-3.97-6.748-3.811c-1.35.159-13.816.159-12.387-4.684 5.479-.715 15.324-.556 16.833 0 1.588.556 5.637 1.191 5.637 1.191s-6.669-4.288-7.384-4.129c-.715.159-15.403 0-15.086-4.288 0 0 14.61-1.19 17.547-1.032 2.938.159 15.166 5.002 17.071 7.226 1.906 2.223 10.878 26.916 13.815 30.171 2.938 3.255 16.924 23.824 17.242 24.936-1.265 1.265-5.692 4.427-6.956 5.059-1.191 1.191-14.545 2.53-14.545 2.53z" fill="#E8C09C"/><path d="M430.203 304.403h-3.063v-6.535c0-7.208-5.495-13.069-12.252-13.069-6.758 0-12.253 5.861-12.253 13.069v6.535h-3.063c-1.694 0-3.063 1.464-3.063 3.267v22.871c0 1.804 1.369 3.268 3.063 3.268h30.631c1.694 0 3.063-1.464 3.063-3.268V307.67c0-1.803-1.369-3.267-3.063-3.267zm-21.442-6.535c0-3.604 2.748-6.535 6.127-6.535 3.378 0 6.126 2.931 6.126 6.535v6.535h-12.253v-6.535z" fill="#FFAA05"/><mask id="d" fill="#fff"><path fill-rule="evenodd" clip-rule="evenodd" d="M378.087 299.553c-.017-10.054 4.077-20.038 12.025-27.267 14.022-12.755 35.444-12.755 49.467 0 7.948 7.229 12.041 17.213 12.025 27.267"/></mask><path d="M373.459 299.561a4.628 4.628 0 009.256-.015l-9.256.015zm16.653-27.275l3.114 3.423-3.114-3.423zm49.467 0l3.114-3.424-3.114 3.424zm7.397 27.26a4.627 4.627 0 109.256.015l-9.256-.015zm-64.261 0c-.015-8.797 3.564-17.518 10.511-23.837l-6.228-6.847c-8.95 8.141-13.557 19.387-13.539 30.699l9.256-.015zm10.511-23.837c12.257-11.149 30.982-11.149 43.239 0l6.228-6.847c-15.788-14.361-39.907-14.361-55.695 0l6.228 6.847zm43.239 0c6.946 6.319 10.525 15.04 10.511 23.837l9.256.015c.018-11.312-4.589-22.558-13.539-30.699l-6.228 6.847z" fill="#FFAA05" mask="url(#d)"/><mask id="e" mask-type="alpha" maskUnits="userSpaceOnUse" x="389" y="274" width="52" height="26"><path d="M389.263 299.529c.366-6.603 3.206-13.048 8.376-17.808a25.508 25.508 0 0134.627 0c5.172 4.761 8.012 11.207 8.376 17.812" fill="#fff"/></mask><g mask="url(#e)"><mask id="f" fill="#fff"><path d="M389.263 299.529c.366-6.603 3.206-13.048 8.376-17.808a25.508 25.508 0 0134.627 0c5.172 4.761 8.012 11.207 8.376 17.812"/></mask><path d="M384.642 299.273a4.628 4.628 0 009.242.512l-9.242-.512zm12.997-17.552l3.135 3.405-3.135-3.405zm34.627 0l-3.135 3.405 3.135-3.405zm3.756 18.068a4.627 4.627 0 109.241-.511l-9.241.511zm-42.138-.004c.302-5.453 2.644-10.75 6.89-14.659l-6.269-6.81c-6.095 5.611-9.433 13.203-9.863 20.957l9.242.512zm6.89-14.659a20.878 20.878 0 0128.357 0l6.269-6.81a30.135 30.135 0 00-40.895 0l6.269 6.81zm28.357 0c4.247 3.91 6.589 9.208 6.891 14.663l9.241-.511c-.428-7.756-3.766-15.35-9.863-20.962l-6.269 6.81z" fill="#FFAA05" mask="url(#f)"/></g></svg>