<svg height="361" width="452" xmlns="http://www.w3.org/2000/svg" xmlns:xlink="http://www.w3.org/1999/xlink"><defs><filter id="a" height="834.6%" width="249.4%" x="-74.7%" y="-273.4%"><feMorphology in="SourceAlpha" operator="dilate" radius="3" result="shadowSpreadOuter1"/><feOffset dy="22" in="shadowSpreadOuter1" result="shadowOffsetOuter1"/><feGaussianBlur in="shadowOffsetOuter1" result="shadowBlurOuter1" stdDeviation="22"/><feColorMatrix in="shadowBlurOuter1" values="0 0 0 0 0.601817255 0 0 0 0 0.601817255 0 0 0 0 0.601817255 0 0 0 0.2 0"/></filter><filter id="b" height="602.6%" width="249.4%" x="-74.7%" y="-187%"><feMorphology in="SourceAlpha" operator="dilate" radius="3" result="shadowSpreadOuter1"/><feOffset dy="22" in="shadowSpreadOuter1" result="shadowOffsetOuter1"/><feGaussianBlur in="shadowOffsetOuter1" result="shadowBlurOuter1" stdDeviation="22"/><feColorMatrix in="shadowBlurOuter1" values="0 0 0 0 0.601817255 0 0 0 0 0.601817255 0 0 0 0 0.601817255 0 0 0 0.2 0"/></filter><filter id="c" height="515.2%" width="249.4%" x="-74.7%" y="-154.5%"><feMorphology in="SourceAlpha" operator="dilate" radius="3" result="shadowSpreadOuter1"/><feOffset dy="22" in="shadowSpreadOuter1" result="shadowOffsetOuter1"/><feGaussianBlur in="shadowOffsetOuter1" result="shadowBlurOuter1" stdDeviation="22"/><feColorMatrix in="shadowBlurOuter1" values="0 0 0 0 0.601817255 0 0 0 0 0.601817255 0 0 0 0 0.601817255 0 0 0 0.2 0"/></filter><filter id="d" height="515.2%" width="249.4%" x="-74.7%" y="-154.5%"><feMorphology in="SourceAlpha" operator="dilate" radius="3" result="shadowSpreadOuter1"/><feOffset dy="22" in="shadowSpreadOuter1" result="shadowOffsetOuter1"/><feGaussianBlur in="shadowOffsetOuter1" result="shadowBlurOuter1" stdDeviation="22"/><feColorMatrix in="shadowBlurOuter1" values="0 0 0 0 0.601817255 0 0 0 0 0.601817255 0 0 0 0 0.601817255 0 0 0 0.2 0"/></filter><filter id="e" height="577.5%" width="578%" x="-239%" y="-177.7%"><feMorphology in="SourceAlpha" operator="dilate" radius="3" result="shadowSpreadOuter1"/><feOffset dy="22" in="shadowSpreadOuter1" result="shadowOffsetOuter1"/><feGaussianBlur in="shadowOffsetOuter1" result="shadowBlurOuter1" stdDeviation="22"/><feColorMatrix in="shadowBlurOuter1" values="0 0 0 0 0.601817255 0 0 0 0 0.601817255 0 0 0 0 0.601817255 0 0 0 0.2 0"/></filter><filter id="f" height="372.9%" width="389.7%" x="-144.8%" y="-101.5%"><feMorphology in="SourceAlpha" operator="dilate" radius="3" result="shadowSpreadOuter1"/><feOffset dy="22" in="shadowSpreadOuter1" result="shadowOffsetOuter1"/><feGaussianBlur in="shadowOffsetOuter1" result="shadowBlurOuter1" stdDeviation="22"/><feColorMatrix in="shadowBlurOuter1" values="0 0 0 0 0.601817255 0 0 0 0 0.601817255 0 0 0 0 0.601817255 0 0 0 0.2 0"/></filter><path id="g" d="m4 0h107.146a4 4 0 0 1 4 4v15.413a4 4 0 0 1 -4 4h-107.146a4 4 0 0 1 -4-4v-15.413a4 4 0 0 1 4-4z"/><path id="h" d="m4 32.418h107.146a4 4 0 0 1 4 4v26.219a4 4 0 0 1 -4 4h-107.146a4 4 0 0 1 -4-4v-26.22a4 4 0 0 1 4-4z"/><path id="i" d="m4 0h107.146a4 4 0 0 1 4 4v33.423a4 4 0 0 1 -4 4h-107.146a4 4 0 0 1 -4-4v-33.423a4 4 0 0 1 4-4z"/><path id="j" d="m4 0h107.146a4 4 0 0 1 4 4v33.423a4 4 0 0 1 -4 4h-107.146a4 4 0 0 1 -4-4v-33.423a4 4 0 0 1 4-4z"/><path id="k" d="m17.872 13.68c0-3.976-1.787-7.2-5.719-7.2s-5.719 3.224-5.719 7.2v5.749l11.438.008zm-17.872 10.786v-12.226c0-6.76 5.441-12.24 12.153-12.24s12.153 5.48 12.153 12.24v12.24z"/><rect id="l" height="36.02" rx="4" width="35.983" y="5.403"/><rect id="m" height="63.035" rx="4" width="59.372"/><mask id="n" fill="#fff"><use fill="#fff" fill-rule="evenodd" xlink:href="#k"/></mask></defs><g fill="none" fill-rule="evenodd"><g transform="translate(8.09)"><path d="m6.063 190.36c1.024 0 1.854.831 1.854 1.856a1.854 1.854 0 1 1 -3.708 0c0-1.025.83-1.856 1.854-1.856zm416.597-4.953a1.855 1.855 0 0 1 0 3.712 1.854 1.854 0 0 1 -1.854-1.856c0-1.025.83-1.856 1.854-1.856zm-419.691-9.81a1.855 1.855 0 1 1 -.002 3.71 1.855 1.855 0 0 1 .002-3.71zm421.544-4.953c1.024 0 1.853.83 1.853 1.855a1.854 1.854 0 1 1 -3.706 0c0-1.024.83-1.855 1.853-1.855zm-422.659-9.811c1.025 0 1.854.83 1.854 1.855a1.854 1.854 0 1 1 -3.708 0c0-1.025.83-1.855 1.854-1.855zm424.512-4.953a1.855 1.855 0 1 1 0 3.712 1.855 1.855 0 0 1 0-3.712z" fill="#1a8cff"/><path d="m91.842 94.266c.911.281 1.157.596 1.907.9.795.324 1.676.498 2.152.816.86.57 2.326 1.527 4.868 2.364 1.468.533 1.955 1.204 3.399 1.593.755.2 1.764.99 1.482 1.622-.216.483-1.318.11-2.74-.31-1.647-.487-2.869-1.365-4.01-1.799-.887-.38-1.409-.534-2.975-1.146-1.566-.614-2.325-1.252-4.138-2.097-1.813-.843-2.937-1.627-2.703-2.152.213-.478.952-.344 2.758.209zm8.266-23.896c.954.49 1.18.867 1.956 1.346.824.509 1.756.885 2.233 1.315.865.773 2.336 2.076 4.987 3.502 1.526.873 1.973 1.666 3.49 2.387.793.374 1.792 1.404 1.41 1.983-.29.44-1.44-.187-2.929-.935-1.725-.869-2.944-2.037-4.127-2.735-.915-.587-1.46-.862-3.084-1.837-1.621-.978-2.366-1.797-4.228-3.066-1.863-1.266-2.985-2.318-2.669-2.798.288-.435 1.072-.132 2.961.838zm229.5-6.573c.306.431-.905 1.427-2.406 2.734-1.74 1.514-3.534 2.418-4.833 3.428-1.052.764-1.604 1.245-3.403 2.623-1.8 1.375-3.005 1.896-5.222 3.432-2.215 1.538-3.844 2.378-4.176 1.91-.302-.426.397-1.144 2.322-2.796.974-.834 1.47-.955 2.343-1.61.926-.694 1.772-1.54 2.447-1.903 1.217-.658 3.276-1.782 6.044-4.083 1.646-1.309 2.676-1.532 4.164-2.877.775-.703 2.32-1.423 2.72-.858zm-212.527-17.17c.873.744 1.03 1.18 1.725 1.864.736.727 1.61 1.348 2.01 1.905.728 1.002 1.969 2.696 4.383 4.822 1.38 1.275 1.68 2.188 3.079 3.31.733.584 1.547 1.877 1.048 2.358-.381.365-1.427-.567-2.793-1.707-1.582-1.325-2.592-2.814-3.658-3.827-.815-.828-1.316-1.247-2.774-2.651-1.456-1.407-2.053-2.424-3.698-4.184-1.644-1.76-2.58-3.109-2.165-3.507.376-.361 1.114.149 2.843 1.618zm195.772-3.813c.38.365-.65 1.595-1.915 3.191-1.467 1.85-3.094 3.105-4.211 4.365-.913.968-1.377 1.554-2.927 3.28-1.553 1.724-2.66 2.48-4.599 4.447-1.934 1.966-3.408 3.125-3.821 2.726-.376-.362.193-1.213 1.82-3.236.824-1.022 1.296-1.241 2.049-2.065.803-.873 1.496-1.881 2.104-2.376 1.097-.895 2.95-2.42 5.3-5.256 1.41-1.626 2.396-2.052 3.641-3.682.65-.854 2.06-1.875 2.56-1.394zm-176.533-11.904c.699.755.771 1.173 1.311 1.859.571.729 1.29 1.372 1.574 1.919.514.985 1.395 2.65 3.314 4.804 1.084 1.287 1.209 2.157 2.34 3.302.593.598 1.139 1.86.58 2.272-.424.312-1.253-.631-2.35-1.791-1.268-1.347-1.966-2.807-2.8-3.826-.627-.83-1.029-1.256-2.167-2.668-1.135-1.415-1.524-2.404-2.775-4.163-1.252-1.756-1.903-3.08-1.44-3.419.42-.309 1.03.219 2.413 1.71zm153.651-4.886c.429.306-.344 1.584-1.276 3.236-1.085 1.915-2.426 3.283-3.278 4.6-.707 1.018-1.048 1.624-2.234 3.43-1.187 1.805-2.117 2.644-3.632 4.719-1.513 2.077-2.726 3.336-3.194 3.003-.425-.303-.027-1.172 1.179-3.268.61-1.059 1.026-1.318 1.605-2.182.616-.916 1.104-1.948 1.602-2.483.896-.969 2.406-2.618 4.166-5.563 1.068-1.697 1.941-2.208 2.849-3.891.473-.88 1.65-2.003 2.213-1.6zm-130.154-8.399c.543.927.533 1.367.932 2.187.423.873 1.009 1.691 1.18 2.31.317 1.118.863 3.008 2.338 5.637.821 1.558.774 2.467 1.668 3.89.47.743.762 2.148.13 2.432-.48.216-1.116-.932-1.972-2.363-.992-1.66-1.396-3.3-2.02-4.526-.459-.987-.774-1.512-1.623-3.209-.845-1.696-1.035-2.788-1.928-4.86-.896-2.07-1.28-3.561-.756-3.796.476-.214.976.465 2.051 2.298zm107.272-5.489c.485.207-.01 1.65-.584 3.499-.667 2.144-1.702 3.803-2.265 5.302-.482 1.169-.693 1.848-1.482 3.908-.792 2.057-1.532 3.1-2.589 5.501-1.055 2.401-1.984 3.925-2.512 3.699-.48-.205-.27-1.156.48-3.509.38-1.188.735-1.539 1.124-2.527.414-1.048.68-2.182 1.058-2.825.678-1.162 1.82-3.14 2.937-6.459.697-1.924 1.448-2.628 1.991-4.502.282-.98 1.205-2.36 1.842-2.087zm-82.715-2.705c.615 1.889.658 3.621 1.008 4.993.236 1.092.431 1.69.898 3.582.464 1.892.417 3.028.846 5.306.433 2.276.49 3.857-.073 3.971-.512.104-.856-.69-1.515-2.771-.332-1.052-.228-1.49-.443-2.402-.226-.97-.624-1.924-.66-2.584-.07-1.19-.198-3.207-1.079-6.176-.47-1.747-.229-2.646-.8-4.276-.3-.85-.285-2.324.394-2.463.517-.105.892 1.19 1.424 2.82zm53.29-4.74.092.011c.514.117.312 1.5.114 3.264-.232 2.045-.917 3.703-1.174 5.146-.243 1.133-.315 1.781-.683 3.767-.37 1.984-.89 3.04-1.452 5.375-.56 2.336-1.17 3.855-1.73 3.727-.508-.116-.49-1.01-.217-3.257.139-1.134.417-1.505.603-2.46.2-1.01.237-2.08.48-2.72.435-1.155 1.163-3.117 1.606-6.296.303-1.85.9-2.6 1.062-4.38.077-.847.604-2.07 1.208-2.17l.09-.007zm-25.116-4.691c.527 0 .637 1.657.835 3.755.225 2.434-.076 4.54-.006 6.282.014 1.378.087 2.149.168 4.55.078 2.4-.195 3.762-.226 6.62-.03 2.857-.287 4.781-.861 4.781-.522 0-.702-1.043-.933-3.721-.117-1.354.072-1.857.043-3.013-.03-1.227-.23-2.477-.134-3.282.169-1.458.444-3.926.172-7.73-.114-2.226.3-3.253.066-5.363-.125-1.102.183-2.879.876-2.879z" fill="#f6ca43"/><path d="m108.254 333.18s15.636-26.11 36.27-41.278c20.631-15.167 70.278-19.04 77.049-25.493 0 0 9.671 18.394-29.015 26.138 0 0 12.036 7.209 22.781 9.145 0 0 20.848-3.443 32.67-17.643 11.82-14.2 19.557-22.16 28.799-16.135 0 0 7.092-10.517 16.12-2.03l-15.046 23.76s19.559-14.415 26.865-2.367c0 0-33.958 32.702-64.906 39.37-30.948 6.67-55.665-6.024-71.354.216-15.69 6.24-21.091 22.898-21.091 22.898s-29.31-9.188-39.142-16.581" fill="#906653"/><path d="m157.09 287.252c.13.555 2.604.264 6.335.155 3.736-.062 5.495.339 8.605.588 3.108.345 4.105.516 5.868.872 1.104.27 2.331.558 3.616 1.04.647.222 1.322.45 2.028.667.698.243 1.42.503 2.184.73 1.331.362 2.463.845 3.327 1.091.858.258 1.427.34 1.543.103.31-.616-1.739-1.892-3.15-2.372-1.37-.391-2.332-.818-3.324-1.24-1.007-.37-2.023-.803-3.482-1.152-5.012-1.05-8.264-1.69-10.215-2.022-.537-.11-1.234-.131-2.001-.124-.767-.005-1.604.016-2.432.034-.78 0-1.34-.038-1.935-.041a12.123 12.123 0 0 0 -2.134.11c-3.597.485-4.949 1.075-4.833 1.56m59.012 15.277c-.213.534-.13.846.124.978.255.136.28.44.533.457.253.014.352-.025.486.013.188 0 .272.358.581.24.27-.105.465-.146.66-.636.258-.644.206-.996.058-.922-.284.14-.226-.283-.475-.261-.454.11-.582-.237-.655-.447-.04-.119-.23.021-.355.001-.118-.016-.095-.21-.265-.151-.335.115-.498.243-.692.728m5.639.967c-.087.276 1.133.828 3.356 1.041 2.216.219 5.428.081 9.109-.807 3.646-.985 6.274-1.938 8.676-3.014 1.185-.57 2.36-1.087 3.546-1.72 1.154-.684 2.36-1.418 3.7-2.258 1.332-.851 2.333-1.704 3.254-2.364.9-.688 1.683-1.24 2.351-1.799l3.736-3.256c.88-.727 1.732-1.569 2.634-2.442.908-.868 1.86-1.775 2.85-2.722 1.024-.92 1.933-2.02 2.926-3.12.98-1.11 1.983-2.275 2.994-3.498 3.285-4.388 5.808-7.885 5.395-8.186-.562-.405-3.628 3.012-5.28 5.327-.769 1.128-1.547 2.023-2.289 2.839a120.51 120.51 0 0 1 -2.138 2.316c-.706.747-1.42 1.5-2.201 2.328a99.291 99.291 0 0 0 -2.71 2.671c-.854.875-1.652 1.735-2.462 2.503-.843.731-1.645 1.43-2.41 2.094-.774.657-1.507 1.281-2.205 1.872-.727.554-1.443 1.039-2.11 1.512-.671.467-1.304.904-1.9 1.317l-.867.594c-.295.166-.58.33-.856.486l-2.875 1.593c-.877.538-2.067 1.075-3.327 1.776-.643.324-1.285.74-1.995 1.028l-2.15.904c-1.346.602-2.393.782-3.46 1.095-1.065.337-2.22.513-3.88.924-3.314.667-5.671.709-7.173.733-1.51.002-2.161-.028-2.239.233" fill="#6c4939"/><path d="m222.548 306.143c-.091.276.922.791 2.782 1.112 1.857.33 4.55.456 7.729.198 3.17-.313 5.499-.643 7.68-1.057 1.087-.223 2.15-.42 3.253-.684 1.094-.297 2.238-.623 3.515-1.01 2.534-.832 4.166-1.492 5.555-1.984l3.865-1.612c3.536-1.523 7.882-3.247 12.536-5.96 3.963-2.414 7.051-4.363 6.787-4.802-.361-.593-3.886 1.067-5.915 2.37-1.947 1.249-3.528 1.93-5.096 2.694-1.566.776-3.213 1.441-5.4 2.496-7.47 3.653-12.759 4.942-15.835 5.605-.846.22-1.934.452-3.118.78a36.685 36.685 0 0 1 -3.802.862c-1.228.252-2.126.29-3.072.374l-3.39.284c-5.77.439-7.938-.205-8.074.334" fill="#6c4939"/><path d="m21.457 240.603c.288-.146 2.369 4.12 7.914 13.387a241.461 241.461 0 0 0 11.517 17.436 228.26 228.26 0 0 0 19.862 23.734 313.202 313.202 0 0 0 6.023 6.011c1.934 1.784 3.672 3.506 5.412 5.024 1.743 1.516 3.351 2.983 4.956 4.33 1.618 1.332 3.174 2.61 4.707 3.873 6.25 4.897 12.317 9.344 21.274 14.73 9.528 5.695 19.67 10.526 29.21 14.24l3.547 1.348c1.167.446 2.314.895 3.47 1.258 2.3.767 4.528 1.511 6.668 2.227 2.157.659 4.243 1.236 6.213 1.819.986.29 1.947.57 2.878.843l2.738.684c3.191.797 6.649 1.72 10.458 2.437 1.9.378 3.865.82 5.92 1.188l6.411 1.033c8.866 1.302 19.036 2.436 30.58 2.661 11.53.29 24.437-.043 38.609-1.874 1.77-.233 3.562-.472 5.376-.712l5.474-.959c3.707-.575 7.436-1.496 11.28-2.319 7.62-1.9 15.572-4.068 23.602-7.155 18.84-7.107 31.675-14.556 43.548-22.755 5.922-4.14 11.522-8.626 17.296-13.782 5.756-5.174 11.641-11.095 17.794-18.398 3.24-3.792 6.77-8.334 10.23-13.013 3.426-4.707 6.699-9.61 9.515-14.066 5.61-8.93 9.315-16.107 9.653-15.938.112.056-.628 1.791-2.137 4.868-1.527 3.067-3.858 7.458-7.03 12.745-6.349 10.546-16.246 24.68-29.793 38.261-15.665 15.769-32.995 27.68-50.213 36.013-8.607 4.189-17.17 7.527-25.5 10.252l-6.21 1.91c-2.055.597-4.112 1.093-6.13 1.636-1.01.264-2.014.529-3.012.791l-3.005.66c-1.99.435-3.955.867-5.895 1.292-3.095.54-6.018 1.053-8.85 1.549-2.844.415-5.604.752-8.346 1.124-1.369.204-2.743.328-4.125.448l-4.172.38c-1.404.112-2.82.296-4.273.353l-4.44.226-4.66.238-4.941.064-5.28.06c-1.823.001-3.712-.09-5.677-.135-1.966-.059-4.007-.118-6.134-.183-2.125-.146-4.335-.299-6.64-.46-1.154-.078-2.33-.16-3.533-.244l-3.671-.397c-2.498-.296-5.111-.523-7.82-.912-21.675-3.112-38.316-7.983-55.083-15.05-8.39-3.533-16.764-7.791-25.61-13.16-8.822-5.394-18.164-11.888-27.972-20.486-4.958-4.232-9.383-8.656-13.549-12.899-4.064-4.34-7.856-8.528-11.17-12.675a211.795 211.795 0 0 1 -16.001-22.366c-4.033-6.485-6.887-11.778-8.706-15.448-1.833-3.664-2.671-5.69-2.556-5.747zm394.253-23.231c.511.134.364 1.115.196 2.356-.2 1.443-.868 2.534-1.127 3.527-.245.774-.319 1.228-.71 2.59-.4 1.359-.928 2.02-1.55 3.58-.62 1.562-1.283 2.515-1.812 2.305-.487-.193-.428-.825-.085-2.365.17-.777.453-.982.657-1.624.223-.68.282-1.434.53-1.842.442-.739 1.188-2.006 1.616-4.196.29-1.264.863-1.713.988-2.954.057-.577.51-1.351 1.079-1.396h.108zm-403.852-2.12c.352.706.267 1.04.51 1.662.258.662.685 1.275.753 1.745.126.847.351 2.29 1.404 4.246.573 1.157.41 1.862 1.086 2.908.36.542.468 1.61-.17 1.88-.486.204-.962-.645-1.605-1.707-.744-1.234-.911-2.492-1.339-3.418-.302-.746-.53-1.143-1.087-2.434-.551-1.297-.564-2.138-1.063-3.736-.503-1.595-.57-2.765-.018-2.922.504-.143.832.38 1.53 1.776z" fill="#1a8cff"/><rect fill="#f0785b" height="14.408" rx="7.197" width="14.393" x="31.756" y="152.994"/><rect fill="#69b18a" height="14.408" rx="7.197" width="14.393" x="385.111" y="114.183"/><ellipse cx="377.645" cy="180.639" fill="#f6ca43" rx="6.297" ry="6.303"/><ellipse cx="130.08" cy="256.011" fill="#8476cd" rx="5.397" ry="5.403"/><ellipse cx="220.038" cy="93.921" fill="#1a8cff" rx="4.498" ry="4.502"/></g><g transform="translate(266 93.472)"><use fill="#000" filter="url(#a)" xlink:href="#g"/><use fill="#fff" xlink:href="#g"/><ellipse cx="101.653" cy="11.706" fill="#c4cdd5" fill-rule="nonzero" rx="4.498" ry="4.502"/><path d="m51.273 9.005a2.701 2.701 0 0 1 0 5.403h-39.576a2.701 2.701 0 0 1 0-5.403zm35.984 0a2.701 2.701 0 0 1 0 5.403h-21.585a2.701 2.701 0 0 1 0-5.403z" fill="#dfe3e8" fill-rule="nonzero"/><use fill="#000" filter="url(#b)" xlink:href="#h"/><use fill="#fff" xlink:href="#h"/><g fill-rule="nonzero"><ellipse cx="13.494" cy="44.124" fill="#c4cdd5" rx="4.498" ry="4.502"/><path d="m96.252 52.229a2.701 2.701 0 0 1 0 5.403h-66.562a2.701 2.701 0 0 1 0-5.403h66.563zm-26.987-10.806a2.701 2.701 0 0 1 0 5.403h-39.576a2.701 2.701 0 0 1 0-5.403zm35.983 0a2.701 2.701 0 0 1 0 5.403h-21.584a2.701 2.701 0 0 1 0-5.403z" fill="#dfe3e8"/></g></g><g transform="translate(287.59 208.735)"><use fill="#000" filter="url(#c)" xlink:href="#i"/><use fill="#fff" xlink:href="#i"/><rect fill="#c4cdd5" height="18.01" rx="2" width="17.992" x="8.996" y="11.706"/><path d="m96.252 23.413a2.701 2.701 0 0 1 0 5.403h-57.567a2.701 2.701 0 0 1 0-5.403zm-17.991-10.806a2.701 2.701 0 0 1 0 5.403h-39.576a2.701 2.701 0 0 1 0-5.403h39.575z" fill="#dfe3e8" fill-rule="nonzero"/><ellipse cx="107.05" cy="8.104" fill="#c4cdd5" rx="2.699" ry="2.701"/></g><g transform="translate(72.59 129.492)"><use fill="#000" filter="url(#d)" xlink:href="#j"/><use fill="#fff" xlink:href="#j"/><rect fill="#c4cdd5" height="18.01" rx="2" width="17.992" x="8.996" y="11.706"/><path d="m96.252 23.413a2.701 2.701 0 0 1 0 5.403h-57.567a2.701 2.701 0 0 1 0-5.403zm-17.991-10.806a2.701 2.701 0 0 1 0 5.403h-39.576a2.701 2.701 0 0 1 0-5.403h39.575z" fill="#dfe3e8" fill-rule="nonzero"/></g><g transform="translate(135.74 68.438)"><use fill="#000" filter="url(#e)" xlink:href="#l"/><use fill="#fff" xlink:href="#l"/><path d="m18.244 13.507v2.378m0 15.849v2.377m-4.75-6.34a3.96 3.96 0 0 0 3.958 3.963h1.583a3.96 3.96 0 0 0 3.958-3.963c0-5.547-9.5-2.377-9.5-7.924a3.96 3.96 0 0 1 3.959-3.962h1.583a3.96 3.96 0 0 1 3.958 3.962" stroke="#f4ca4c" stroke-linecap="round" stroke-linejoin="round" stroke-width="2"/><ellipse cx="35.983" cy="5.403" fill="#f0785b" rx="5.397" ry="5.403"/></g><g transform="translate(49.38 193.607)"><use fill="#000" filter="url(#f)" xlink:href="#m"/><use fill="#fff" xlink:href="#m"/><path d="m10.618 7.024h21.584a2.701 2.701 0 0 1 0 5.403h-21.584a2.701 2.701 0 1 1 0-5.403z" fill="#dfe3e8" fill-rule="nonzero"/><rect fill="#c4cdd5" height="37.821" rx="2.816" width="44.979" x="7.197" y="18.01"/><g fill="#fff" fill-rule="nonzero"><path d="m8.996 43.786 9.817-7.726 17.015 6.69 14.549-13.148v22.428a2 2 0 0 1 -2 2h-37.381a2 2 0 0 1 -2-2z"/><ellipse cx="36.825" cy="28.319" rx="3.598" ry="3.602"/></g></g><path d="m234.55 128.771c-18.207 13.67-45.518 22.783-63.726 22.783 0 42.526 21.244 86.574 63.727 104.8 42.482-18.226 63.726-62.274 63.726-104.8-18.208 0-45.519-9.113-63.726-22.783z" fill="#439d6d"/><g fill-rule="nonzero" transform="translate(213.105 163.89)"><g transform="translate(8.936)"><use fill="#dfe3e8" xlink:href="#k"/><path d="m0 17.28h24.306v2.16h-24.306z" fill="#c4cdd5" mask="url(#n)"/></g><rect fill="#f6ca43" height="34.56" rx="4.8" width="42.179" y="19.44"/><path d="m28.41 48.6a.9.9 0 0 1 0 1.8h-14.283a.9.9 0 0 1 0-1.8zm-6.963-20.52c1.974 0 3.574 1.612 3.574 3.6a3.603 3.603 0 0 1 -1.892 3.177l1.892 7.623h-7.149l1.893-7.623a3.603 3.603 0 0 1 -1.893-3.177c0-1.988 1.6-3.6 3.575-3.6z" fill="#f09500" opacity=".8"/></g></g></svg>