<svg height="29" width="114" viewBox="0 0 114 29" preserveAspectRatio="xMidYMid meet" fill="none" xmlns="http://www.w3.org/2000/svg"><path fill-rule="evenodd" clip-rule="evenodd" d="M30.191 10.344h11.44v2.147h-4.498v12.073h-2.474V12.491h-4.478v-2.147h.01zm10.951 3.924h2.114v1.987h.04c.07-.281.2-.552.39-.813.189-.261.418-.512.688-.723.269-.22.568-.391.897-.531.33-.131.668-.201 1.008-.201.259 0 .448.01.548.02.047.005.093.011.14.018.055.008.11.017.17.022v2.188c-.16-.03-.32-.05-.49-.07-.17-.02-.329-.03-.488-.03-.38 0-.738.08-1.077.23-.34.15-.629.382-.878.673-.25.3-.449.662-.598 1.104-.15.441-.22.943-.22 1.515v4.898h-2.254V14.268h.01zm14.143 10.296h2.214V14.278h-2.254v5.971c0 .402-.04.773-.13 1.114a2.28 2.28 0 01-.429.883c-.19.251-.449.442-.768.592-.319.15-.708.221-1.187.221-.618 0-1.107-.19-1.446-.562-.349-.371-.518-1.014-.518-1.917v-6.312h-2.255V20.8c0 1.355.3 2.369.898 3.041.599.672 1.576 1.004 2.922 1.004.569 0 1.127-.161 1.676-.472a3.085 3.085 0 001.237-1.245h.04v1.435zm6.054-3.301c.07.662.319 1.124.748 1.395.438.26.957.401 1.565.401.21 0 .45-.02.718-.05a3 3 0 00.758-.19c.24-.091.43-.232.589-.412.15-.18.22-.412.21-.703a.972.972 0 00-.32-.712c-.2-.19-.449-.331-.758-.452-.309-.11-.658-.21-1.057-.29a51.47 51.47 0 01-.986-.213l-.22-.049a11.41 11.41 0 01-1.218-.341 3.706 3.706 0 01-1.047-.542 2.38 2.38 0 01-.738-.863c-.19-.351-.28-.783-.28-1.305 0-.562.14-1.023.41-1.405.27-.381.618-.682 1.027-.913a4.74 4.74 0 011.386-.492c.509-.09.998-.14 1.457-.14.528 0 1.037.06 1.516.17.478.11.917.291 1.306.552.389.251.708.582.968.984.259.401.418.893.488 1.465h-2.354c-.11-.542-.349-.913-.738-1.094-.389-.19-.837-.28-1.336-.28-.16 0-.35.01-.569.04-.219.03-.418.08-.618.15-.19.07-.349.18-.489.321-.13.14-.2.321-.2.552 0 .281.1.502.29.672.19.171.439.312.748.432.31.11.658.21 1.057.291.313.063.632.132.957.203l.27.058c.409.09.808.21 1.207.341.399.13.748.311 1.057.542.31.23.559.512.748.853.19.341.29.773.29 1.275 0 .612-.14 1.124-.42 1.555-.279.422-.638.773-1.077 1.034-.438.26-.937.461-1.476.582-.538.12-1.077.18-1.605.18a6.77 6.77 0 01-1.796-.22 4.359 4.359 0 01-1.426-.662 3.28 3.28 0 01-.947-1.114c-.23-.442-.35-.974-.37-1.586h2.275v-.02zm9.145-6.995H68.8v1.716h1.705v6.072c.01.421.06.802.13 1.134.08.33.21.602.419.823.2.22.488.391.847.501.36.11.838.171 1.437.171.249 0 .488-.01.728-.04.125-.017.256-.03.39-.044.112-.011.225-.023.338-.037v-1.756c-.16.04-.32.06-.479.07-.16.01-.32.01-.479.01-.259 0-.448-.03-.598-.09a.64.64 0 01-.33-.27c-.069-.121-.119-.272-.139-.442-.02-.181-.03-.382-.03-.622v-5.5h2.035v-1.696h-2.035v-3.091h-2.254v3.09zm5.885 0h2.134v1.395h.04c.319-.602.758-1.024 1.326-1.285a4.347 4.347 0 011.845-.391c.808 0 1.506.14 2.105.431a4.116 4.116 0 011.496 1.175 5.15 5.15 0 01.888 1.746c.199.662.299 1.375.299 2.127a7.44 7.44 0 01-.27 2.008 5.386 5.386 0 01-.808 1.726 3.972 3.972 0 01-1.376 1.194c-.558.301-1.207.452-1.965.452-.329 0-.658-.03-.987-.09a4.33 4.33 0 01-.948-.292c-.299-.13-.588-.3-.837-.512a3.175 3.175 0 01-.649-.722h-.04v5.138H76.37v-14.1zm7.7 3.803c.119.442.179.893.179 1.355 0 .452-.05.893-.14 1.325-.1.431-.27.813-.499 1.154-.229.331-.518.612-.877.823-.36.21-.788.321-1.307.321-.459 0-.867-.09-1.217-.28a2.694 2.694 0 01-.897-.754c-.26-.32-.44-.702-.569-1.144a5.113 5.113 0 01-.19-1.445c0-1.104.24-1.987.719-2.65.479-.662 1.197-.993 2.144-.993.459 0 .868.11 1.227.311.349.201.648.472.888.813.239.341.418.723.538 1.164zm4.158-7.727h2.254v2.147h-2.254v-2.147zm2.254 3.924h-2.254v10.296h2.254V14.268zm2.015-3.924h2.254v14.22h-2.254v-14.22zm6.981 14.09c.639.271 1.367.412 2.184.412.818 0 1.546-.141 2.185-.412a4.595 4.595 0 001.625-1.124 4.91 4.91 0 001.008-1.716 6.672 6.672 0 00.349-2.188c0-.783-.12-1.505-.349-2.168a4.91 4.91 0 00-1.008-1.716 4.826 4.826 0 00-1.625-1.124c-.639-.27-1.367-.411-2.185-.411-.817 0-1.545.14-2.184.411a4.594 4.594 0 00-1.626 1.124 4.902 4.902 0 00-1.007 1.716 6.583 6.583 0 00-.349 2.168c0 .793.12 1.526.35 2.188.229.662.568 1.234 1.007 1.716.448.472.987.853 1.625 1.124zm2.184-1.385c.499 0 .938-.11 1.307-.321.369-.21.668-.492.908-.833.239-.341.408-.733.528-1.164.11-.432.17-.873.17-1.325 0-.441-.06-.873-.17-1.315a3.455 3.455 0 00-.528-1.164 2.765 2.765 0 00-.908-.823c-.369-.21-.808-.32-1.307-.32-.498 0-.937.11-1.306.32-.37.211-.668.492-.908.823-.24.341-.409.723-.528 1.164-.11.442-.17.873-.17 1.315 0 .452.06.893.17 1.325.11.431.289.823.528 1.164.24.341.539.622.908.833.369.22.808.321 1.306.321zm7.53-8.781h-1.685v1.716h1.705v6.072c.01.421.06.802.13 1.134.08.33.209.602.419.823.199.22.489.391.848.501.359.11.837.171 1.436.171.249 0 .489-.01.728-.04.125-.017.256-.03.39-.044.112-.011.225-.023.338-.037v-1.756c-.16.04-.319.06-.479.07-.159.01-.319.01-.478.01-.26 0-.449-.03-.599-.09a.643.643 0 01-.329-.27c-.07-.121-.12-.272-.14-.442-.02-.181-.03-.382-.03-.622v-5.5h2.035v-1.696h-2.035v-3.091h-2.254v3.09z" fill="#191919"/><path d="M27.558 10.344H17.226L14.034.448l-3.201 9.896L.5 10.334l8.368 6.121-3.202 9.886 8.368-6.112 8.358 6.112-3.192-9.886 8.358-6.111z" fill="#00B67A"/><path d="M19.919 18.694l-.719-2.238-5.166 3.773 5.885-1.535z" fill="#005128"/></svg>